# xmcd
#
# Track frame offsets: 
#        150
#        22451
#        43377
#        59975
#        77300
#        101602
#        119886
#        136236
#        156374
#        175338
#
# Disc length: 2561 seconds
#
# Revision: 5
# Processed by: cddbd v1.5.2PL0 Copyright (c) Steve Scherf et al.
# Submitted via: ExactAudioCopy v1.0b3
#
DISCID=9809ff0a
DTITLE=王靖雯 - Shirley
DYEAR=1989
DGENRE=Pop
TTITLE0=無奈那天
TTITLE1=藉口
TTITLE2=有緣的話 (& 陳小寶)
TTITLE3=溫柔的手
TTITLE4=尾班車
TTITLE5=未平復的心 (& 黃貫中)
TTITLE6=仍是舊句子
TTITLE7=中間人
TTITLE8=愛聽謊言
TTITLE9=新生
EXTD=YEAR: 1989 ID3G: 13
EXTT0=
EXTT1=
EXTT2=
EXTT3=
EXTT4=
EXTT5=
EXTT6=
EXTT7=
EXTT8=
EXTT9=
PLAYORDER=
